<?xml version="1.0" encoding="UTF-8" standalone="no"?>
<svg xmlns="http://www.w3.org/2000/svg" viewBox="0 0 659.73145 662.69879" width="660" height="663">
  <g transform="translate(-63.302582,-260.134)">
    <ellipse fill="#2d6a4f" cx="393.1683" cy="591.4834" rx="329.86572" ry="331.3494"/>
    <ellipse fill="#f7f4ef" cx="391.19009" cy="590.49426" rx="263.59586" ry="264.09042"/>
    <path fill="#a0522d" d="M 488.36944,634.26208 C 403.00975,574.96219 301.57548,532.22399 129.05078,562.73047 c -8.13616,84.4222 18.88939,178.92197 113.19956,245.73695 14.21213,10.06873 29.11301,17.70305 46.41537,25.23759 21.22893,9.24442 54.06366,17.0319 55.99054,16.70124 17.91233,-11.70069 32.63155,-23.9164 30.11034,-38.91283 C 366.40407,776.44499 309.52603,765.65431 271.17545,745.59991 246.56936,732.22037 220.18561,719.48277 242.25,689.25 296.77758,648.15195 397.21984,645.05225 488.36944,634.26208 Z"/>
    <path fill="#a0522d" d="m 653.6875,611.9375 c -40.96955,-7.49286 -97.54019,20.67391 -151.02297,41.78272 -53.51043,17.88534 -147.97648,20.41231 -159.36419,54.09367 1.74295,15.88923 36.93528,24.34526 71.77134,32.88046 46.59508,18.10694 86.31671,40.90032 91.86582,86.99315 89.57044,-43.55357 138.261,-115.62798 146.75,-215.75 z"/>
  </g>
</svg>
